<svg width="88" height="88" viewBox="0 0 88 88" fill="none" xmlns="http://www.w3.org/2000/svg">
<path d="M87.493 44.0101C87.493 68.0231 68.0231 87.5133 43.9899 87.5133C19.977 87.5133 0.486755 68.0433 0.486755 44.0101C0.486755 19.9972 19.9567 0.50703 43.9899 0.50703C68.0231 0.50703 87.493 19.977 87.493 44.0101Z" stroke="white" stroke-width="0.5" stroke-miterlimit="10"/>
<path d="M29.3874 44.0101C29.3874 46.9103 27.0348 49.263 24.1346 49.263C21.2344 49.263 18.8818 46.9103 18.8818 44.0101C18.8818 41.1099 21.2344 38.7573 24.1346 38.7573C27.0348 38.737 29.3874 41.0897 29.3874 44.0101Z" fill="white"/>
<path d="M49.263 44.0101C49.263 46.9103 46.9104 49.263 44.0101 49.263C41.1099 49.263 38.7573 46.9103 38.7573 44.0101C38.7573 41.1099 41.1099 38.7573 44.0101 38.7573C46.9104 38.737 49.263 41.0897 49.263 44.0101Z" fill="white"/>
<path d="M69.1385 44.0101C69.1385 46.9103 66.7859 49.263 63.8857 49.263C60.9855 49.263 58.6329 46.9103 58.6329 44.0101C58.6329 41.1099 60.9855 38.7573 63.8857 38.7573C66.7859 38.7573 69.1385 41.0897 69.1385 44.0101Z" fill="white"/>
</svg>
