<svg width="12" height="12" viewBox="0 0 12 12" fill="none" xmlns="http://www.w3.org/2000/svg">
<path d="M0.749757 12C0.651228 12.0002 0.553642 11.9809 0.462588 11.9432C0.371535 11.9056 0.288803 11.8503 0.219133 11.7807C0.149463 11.711 0.0942232 11.6283 0.0565788 11.5372C0.0189344 11.4461 -0.000375107 11.3486 -0.000243472 11.25V10.5C0.20168 9.99147 0.505427 9.52954 0.892347 9.14262C1.27927 8.75571 1.74119 8.45196 2.24976 8.25003H2.99976C3.39758 8.25003 3.77911 8.092 4.06042 7.8107C4.34172 7.52939 4.49976 7.14786 4.49976 6.75003V6.25003C4.19873 5.89354 3.96921 5.48238 3.82376 5.03903C3.80948 4.94398 3.76453 4.85619 3.69576 4.78903C3.53685 4.65134 3.42935 4.4638 3.39085 4.25709C3.35234 4.05038 3.38509 3.83672 3.48376 3.65103C3.51776 3.57603 3.59376 3.51603 3.58376 3.42603C3.58376 2.97803 3.58376 2.52603 3.58376 2.08103C3.5932 1.66152 3.71848 1.25278 3.94576 0.900035C4.22421 0.504183 4.63788 0.223897 5.10876 0.112035C5.64384 -0.0193364 6.20114 -0.0323051 6.74176 0.0740345C7.1732 0.146352 7.57116 0.351976 7.87976 0.662035C8.23368 1.07109 8.42449 1.59619 8.41576 2.13703C8.41576 2.57603 8.41576 3.01704 8.41576 3.45603C8.41576 3.52203 8.46476 3.56703 8.49476 3.61904C8.59846 3.79368 8.642 3.99753 8.61869 4.1993C8.59539 4.40107 8.50654 4.58962 8.36576 4.73603C8.31276 4.79304 8.23276 4.83603 8.21676 4.91703C8.07199 5.4128 7.82768 5.87385 7.49876 6.27204V6.75304C7.49876 7.15086 7.65679 7.53239 7.9381 7.8137C8.2194 8.095 8.60093 8.25303 8.99876 8.25303H9.74876C10.2572 8.45456 10.7191 8.75781 11.1062 9.1442C11.4933 9.53058 11.7973 9.99196 11.9998 10.5V11.25C11.9999 11.3486 11.9806 11.4461 11.9429 11.5372C11.9053 11.6283 11.8501 11.711 11.7804 11.7807C11.7107 11.8503 11.628 11.9056 11.5369 11.9432C11.4459 11.9809 11.3483 12.0002 11.2498 12H0.749757Z" fill="#313131"/>
</svg>
