<svg width="31" height="31" viewBox="0 0 31 31" fill="none" xmlns="http://www.w3.org/2000/svg">
<path d="M15.5 0C6.94073 0 0 6.93893 0 15.5C0 24.0611 6.94073 31 15.5 31C24.0611 31 31 24.0593 31 15.5C31 6.93893 24.0593 0 15.5 0ZM15.2847 6.44009C15.7727 6.78461 16.2052 7.2063 16.7399 7.70514C16.8404 7.79486 16.9355 7.90252 17.2872 7.78051C18.014 7.56518 19.6774 6.74693 20.8688 6.63927C21.4107 6.56749 21.5543 6.63927 21.8791 6.92817C22.5017 7.45751 22.9683 7.85228 23.3505 8.27217C22.1195 8.41213 21.7248 8.51082 21.461 8.57722L21.3318 8.60772L21.3085 8.61311C20.7504 8.75307 20.5781 9.13886 20.5297 9.29856C20.51 9.36675 20.492 9.46006 20.492 9.56772C20.492 9.74537 20.5494 9.96787 20.7253 10.2011C21.0357 10.7018 21.2062 11.0481 21.3156 11.3101C20.1654 11.6636 18.9076 12.1445 18.3567 12.3957C18.0122 12.5536 17.7645 12.8569 17.6945 13.2086C17.6838 13.2642 17.6748 13.336 17.6748 13.4167C17.6748 13.6374 17.7412 13.9371 18.0175 14.2314C18.8663 15.1411 19.8281 17.2119 19.8281 19.4854C19.8281 19.9806 19.7832 20.483 19.6809 20.9873C19.2036 23.3487 17.612 25.1503 14.9527 26.34C13.5728 26.9572 12.1642 27.0846 10.7431 27.038C10.822 27.0308 10.901 27.0236 10.9817 27.0128C13.6536 26.6881 15.5305 25.7622 16.8279 23.451C18.6205 20.2641 17.2603 16.3559 14.5705 14.1381C13.8061 13.5082 12.925 13.0237 12.0745 12.5159C11.861 12.3885 11.7389 12.2001 12.0099 11.8735C12.4495 11.2473 13.1834 10.2765 14.409 9.30215C14.662 9.12271 14.5544 8.97916 14.4467 8.83382C14.0142 8.47314 13.7253 8.25602 13.1834 7.93123C12.8945 7.78768 12.7779 7.63336 13.0022 7.42701C13.2714 7.18118 13.693 6.81332 14.7158 6.37908C14.933 6.25168 15.1591 6.33602 15.2847 6.44009ZM5.19657 9.19808C5.41011 8.77639 5.91074 7.83793 6.36293 7.2709C6.4706 7.13632 6.5657 7.08248 6.80615 7.12196C7.24398 7.19553 8.01378 7.52032 9.01864 7.80204C9.20526 7.85408 9.31292 7.85408 9.47262 7.67464C9.88354 7.21348 11.0373 6.1494 12.9161 5.37063C13.1278 5.2827 13.4095 5.27912 13.6697 5.40472C13.8958 5.51598 14.147 5.62185 14.4395 5.77257C13.5477 6.17452 13.0847 6.53519 12.7223 6.86536C12.4136 7.14888 12.3455 7.45034 12.3455 7.65669C12.3455 7.70693 12.349 7.75 12.3544 7.78768C12.4029 8.13759 12.6308 8.4211 13.0291 8.63464L13.0812 8.66335C13.0632 8.65438 13.0471 8.64361 13.0291 8.63464C13.3144 8.80511 13.519 8.94148 13.7146 9.08683C12.6989 9.97326 12.0458 10.8292 11.6259 11.4285C11.3119 11.8251 11.2903 12.1804 11.3298 12.4136C11.3693 12.6451 11.5039 12.9717 11.9202 13.2193L12.3472 13.4723C13.0578 13.8904 13.7289 14.287 14.3193 14.7733C16.6089 16.661 18.057 20.1242 16.39 23.0867C15.2703 25.0767 13.65 26.1013 11.136 26.4063C10.2173 26.5194 9.34881 26.4386 8.53774 26.2323C8.8697 26.2736 9.21423 26.2951 9.57131 26.2897C11.4626 26.2574 13.4472 25.6042 14.479 23.9803C17.0629 19.916 14.0932 15.7117 10.0773 14.3803C9.16578 14.077 7.67464 13.7523 6.49392 13.6033C6.06147 13.5495 5.95381 13.4149 6.08839 13.117C6.32525 12.5931 6.79718 11.581 7.64951 10.2909C7.6872 10.2334 7.66925 10.0917 7.50596 10.045C7.06992 9.92122 6.16914 9.67898 5.44061 9.56952C5.18581 9.53184 5.08891 9.40982 5.19657 9.19808ZM17.6299 29.4514C8.68488 30.8242 4.13609 24.1041 4.13609 24.1041C6.18887 26.0923 9.67898 29.3204 14.9742 26.8747C22.6632 23.4348 20.3951 15.753 18.2939 13.5028C18.0409 13.2319 18.2042 13.0076 18.3836 12.9268C18.9865 12.6505 20.5925 12.0404 21.8575 11.6995C22.0011 11.6546 22.0298 11.5828 21.9562 11.4016C21.8486 11.0858 21.7212 10.6085 21.0895 9.58746C20.8922 9.37034 20.9819 9.24473 21.199 9.1909C21.4789 9.13169 21.7086 9.02402 23.3092 8.84817C23.4815 8.82126 23.6699 8.88765 23.7417 9.02941C24.0844 9.63771 24.332 10.255 24.5743 11.0463C24.5976 11.1253 24.7232 11.2868 24.8596 11.2921C25.4463 11.3155 27.5673 11.328 28.6816 11.5523C28.7714 11.5703 28.9652 11.6779 29.0082 11.8071C29.3061 12.6972 29.9628 16.9965 28.0715 21.5346C25.9093 26.7311 21.7104 28.827 17.6299 29.4514Z" fill="#FF7500"/>
</svg>
