<svg width="21" height="22" viewBox="0 0 21 22" fill="none" xmlns="http://www.w3.org/2000/svg">
<path d="M17.0648 21.324L14.8649 19.124C14.791 19.0522 14.7339 18.965 14.6976 18.8686C14.6614 18.7722 14.6468 18.6689 14.655 18.5663C14.6632 18.4636 14.694 18.364 14.7451 18.2746C14.7963 18.1852 14.8666 18.1081 14.9509 18.049C15.7563 17.4629 16.4649 16.7544 17.0509 15.949C17.11 15.8648 17.1868 15.7946 17.2761 15.7435C17.3654 15.6924 17.465 15.6615 17.5675 15.6532C17.6701 15.6449 17.7732 15.6593 17.8695 15.6954C17.9659 15.7315 18.053 15.7884 18.1249 15.862L20.3248 18.062C20.7571 18.4944 21 19.0809 20.9999 19.6923C20.9998 20.3038 20.7568 20.8902 20.3243 21.3225C19.8919 21.7548 19.3054 21.9976 18.694 21.9975C18.0825 21.9974 17.4961 21.7544 17.0638 21.322L17.0648 21.324ZM-0.000122016 10.146C-0.000319802 8.33684 0.535928 6.56826 1.54089 5.06391C2.54586 3.55956 3.97437 2.38703 5.64575 1.69456C7.31713 1.00209 9.15638 0.820797 10.9308 1.17362C12.7052 1.52645 14.335 2.39754 15.6144 3.67674C16.8937 4.95593 17.765 6.58576 18.118 8.36013C18.4711 10.1345 18.2899 11.9737 17.5977 13.6452C16.9054 15.3166 15.733 16.7452 14.2288 17.7504C12.7245 18.7555 10.956 19.292 9.14685 19.292C6.7219 19.2894 4.39704 18.3249 2.68225 16.6103C0.967458 14.8957 0.00278955 12.5709 -0.000122016 10.146ZM2.74487 10.146C2.74487 11.4118 3.12025 12.6492 3.82349 13.7016C4.52673 14.7541 5.52623 15.5744 6.69568 16.0588C7.86513 16.5432 9.15195 16.67 10.3934 16.423C11.6349 16.1761 12.7754 15.5665 13.6704 14.6715C14.5655 13.7764 15.1749 12.636 15.4219 11.3946C15.6688 10.1531 15.5421 8.86626 15.0577 7.69682C14.5733 6.52737 13.753 5.52783 12.7006 4.82459C11.6481 4.12135 10.4107 3.746 9.1449 3.746C7.44824 3.74838 5.82179 4.42343 4.62207 5.62315C3.42235 6.82286 2.74725 8.44934 2.74487 10.146Z" fill="white"/>
</svg>
