<svg width="28" height="39" viewBox="0 0 28 39" fill="none" xmlns="http://www.w3.org/2000/svg">
<path d="M12.5841 37.4668C9.17693 30.525 0.783953 19.5329 0.425758 18.1166L0.411321 18.0576C0.14283 16.9902 0.00469919 15.8942 0 14.7935C0 11.0806 1.47494 7.51961 4.10036 4.89419C6.72578 2.26877 10.2866 0.793945 13.9995 0.793945C17.7124 0.793945 21.2733 2.26877 23.8987 4.89419C26.5241 7.51961 27.9991 11.0806 27.9991 14.7935C27.9959 16.3456 27.7265 17.8857 27.2025 19.3468L27.1591 19.4625C26.9061 20.1557 18.7594 30.6321 15.414 37.4668C15.0278 38.2633 14.5122 38.6621 13.9995 38.6621C13.4869 38.6621 12.9742 38.2633 12.5841 37.4668ZM6.10476 14.7935C6.08062 16.3602 6.52313 17.8988 7.37602 19.2133C8.22892 20.5279 9.45365 21.5587 10.8943 22.1751C12.3349 22.7915 13.9263 22.9654 15.4661 22.6746C17.0058 22.3838 18.4242 21.6414 19.5408 20.5421C20.6574 19.4427 21.4217 18.036 21.7364 16.501C22.0511 14.9659 21.9019 13.372 21.308 11.922C20.714 10.472 19.7021 9.23121 18.401 8.35801C17.0999 7.48481 15.5684 7.01863 14.0015 7.01845C12.9724 7.01043 11.9517 7.20524 10.9979 7.5917C10.0441 7.97816 9.17575 8.5486 8.44245 9.27069C7.70916 9.99278 7.12526 10.8524 6.72416 11.8001C6.32305 12.7479 6.11259 13.7653 6.10476 14.7944V14.7935Z" fill="white"/>
</svg>
