<svg width="14" height="10" viewBox="0 0 14 10" fill="none" xmlns="http://www.w3.org/2000/svg">
<path d="M1.05292 8.99988C0.818823 8.99945 0.591329 8.92255 0.404968 8.78088L3.18695 5.37097L2.45593 4.81995L-6.10352e-05 7.82996V1.01184C0.00020218 0.863736 0.0343871 0.71766 0.0999146 0.584839L7.01392 7.71179L13.7559 0.372925C13.9111 0.549804 13.9974 0.776561 13.999 1.01184V7.9198L11.468 4.81995L10.7369 5.37195L13.5479 8.81799C13.3707 8.9377 13.1618 9.0016 12.9479 9.00183L1.05292 8.99988ZM0.827942 0.0238037C0.901892 0.00793267 0.977283 -3.74136e-05 1.05292 -0.00012207H12.861L6.99994 6.38293L0.827942 0.0238037Z" fill="white"/>
</svg>
