<svg width="84" height="86" viewBox="0 0 84 86" fill="none" xmlns="http://www.w3.org/2000/svg">
<path d="M6.10352e-05 43.353C6.10352e-05 19.884 18.8411 0.791016 42.0001 0.791016C65.1591 0.791016 84.0001 19.884 84.0001 43.353C84.0001 66.822 65.1591 85.9141 42.0001 85.9141C18.8411 85.9141 6.10352e-05 66.821 6.10352e-05 43.353ZM0.933044 43.353C0.933044 66.3 19.354 84.968 41.998 84.968C64.642 84.968 83.066 66.3 83.066 43.353C83.066 20.406 64.643 1.73706 41.998 1.73706C19.353 1.73706 0.934082 20.405 0.934082 43.353H0.933044ZM26.876 77.353L26.889 76.769C26.817 76.929 26.7451 77.094 26.6711 77.26C23.3098 75.7147 20.2013 73.6703 17.451 71.196C17.809 70.3514 18.1834 69.5387 18.574 68.7581C21.3787 63.0953 25.6447 58.2842 30.9311 54.822C33.2095 53.1577 35.702 51.8082 38.3411 50.8101C38.3534 50.8112 38.3657 50.8112 38.3781 50.8101L40.871 53.4651L41.9431 54.5581L43.022 53.4651L45.5151 50.8101C45.5274 50.811 45.5397 50.811 45.5521 50.8101C48.1912 51.8082 50.6836 53.1577 52.962 54.822C54.9364 56.1805 56.7833 57.7154 58.48 59.408L58.493 59.4021C58.517 59.4241 58.5981 59.515 58.6541 59.575C61.363 62.2508 63.6145 65.3531 65.319 68.7581C65.6817 69.4827 66.0304 70.234 66.3651 71.012C63.6539 73.489 60.5865 75.5454 57.2651 77.1121L57.2111 76.9919C57.1431 76.8409 57.075 76.6741 57.001 76.5271L57.0171 77.2271C52.2941 79.4004 47.1601 80.5361 41.9611 80.5576C36.7621 80.5792 31.6189 79.4861 26.8781 77.3521L26.876 77.353ZM27.126 35.1091C27.1034 33.1666 27.4664 31.2389 28.1941 29.4377C28.9218 27.6366 29.9996 25.9976 31.3652 24.616C32.7308 23.2343 34.357 22.1373 36.1495 21.3887C37.9421 20.64 39.8654 20.2546 41.808 20.2546C43.7507 20.2546 45.674 20.64 47.4666 21.3887C49.2591 22.1373 50.8853 23.2343 52.2509 24.616C53.6165 25.9976 54.6944 27.6366 55.4221 29.4377C56.1497 31.2389 56.5127 33.1666 56.4901 35.1091C56.4871 36.7742 56.2069 38.427 55.6611 40C55.5302 40.1784 55.3847 40.3457 55.2261 40.5C53.0551 42.579 48.407 42.991 45.785 43.05C45.6536 42.8259 45.4668 42.6392 45.2425 42.5081C45.0182 42.3769 44.7639 42.3056 44.5041 42.301H43.345C42.9316 42.301 42.535 42.4652 42.2427 42.7576C41.9503 43.0499 41.7861 43.4466 41.7861 43.8601C41.7861 44.2736 41.9503 44.67 42.2427 44.9624C42.535 45.2548 42.9316 45.4189 43.345 45.4189H44.5041C44.7785 45.4149 45.0466 45.3369 45.2802 45.1929C45.5138 45.0489 45.7042 44.8444 45.8311 44.6011C48.7276 44.6119 51.5975 44.0472 54.274 42.9399C52.975 45.0855 51.1458 46.8608 48.9622 48.095C46.7787 49.3291 44.3143 49.9808 41.8061 49.9871C37.8873 49.9606 34.1394 48.3789 31.3867 45.5896C28.634 42.8003 27.1018 39.0318 27.1271 35.113L27.126 35.1091ZM55.1561 42.481C55.5577 42.2346 55.9332 41.9482 56.277 41.626C56.7875 41.1545 57.1933 40.5811 57.468 39.9429C57.7428 39.3046 57.8805 38.6157 57.8721 37.9209C57.8727 37.8197 57.8534 37.7195 57.8152 37.6257C57.7771 37.532 57.7209 37.4467 57.6497 37.3748C57.5786 37.3028 57.4939 37.2455 57.4006 37.2063C57.3073 37.1671 57.2073 37.1465 57.1061 37.146C57.0378 37.1502 56.9705 37.164 56.9061 37.187C57.0002 36.499 57.048 35.8055 57.0491 35.1111C57.0458 33.9638 56.9167 32.8201 56.6641 31.7009C57.9308 32.1706 58.9959 33.0645 59.6784 34.2305C60.3609 35.3964 60.6187 36.7627 60.4081 38.0972C60.1974 39.4317 59.5313 40.652 58.5229 41.551C57.5144 42.4501 56.2259 42.9724 54.876 43.0291C54.982 42.8561 55.06 42.6641 55.157 42.4841L55.1561 42.481Z" fill="white"/>
</svg>
