<svg width="83" height="85" viewBox="0 0 83 85" fill="none" xmlns="http://www.w3.org/2000/svg">
<path d="M0 42.01C0 18.852 18.617 0.0100098 41.5 0.0100098C64.383 0.0100098 83 18.852 83 42.01C83 65.168 64.383 84.01 41.5 84.01C18.617 84.01 0 65.169 0 42.01ZM0.921997 42.01C0.921997 64.655 19.122 83.0769 41.499 83.0769C63.876 83.0769 82.076 64.655 82.076 42.01C82.076 19.365 63.876 0.943115 41.499 0.943115C19.122 0.943115 0.921997 19.366 0.921997 42.01ZM56.294 52.8501C55.616 52.8501 55.067 52.55 55.067 52.179V48.5991H49.393V52.179C49.393 52.551 48.844 52.8501 48.167 52.8501H34.832C34.154 52.8501 33.605 52.55 33.605 52.179V48.5991H27.932V52.179C27.932 52.551 27.383 52.8501 26.706 52.8501H13.368C12.691 52.8501 12.142 52.55 12.142 52.179V44.8999C12.142 44.5299 12.691 44.229 13.368 44.229H19.841V42.665C19.8392 42.3679 19.8958 42.0731 20.0079 41.7979C20.1199 41.5226 20.2851 41.2722 20.4939 41.0608C20.7027 40.8493 20.9512 40.6811 21.225 40.5657C21.4989 40.4503 21.7928 40.3898 22.09 40.3879H41.5V36.0571H34.831C34.153 36.0571 33.604 35.757 33.604 35.386V28.106C33.604 27.736 34.153 27.436 34.831 27.436H48.168C48.845 27.436 49.394 27.736 49.394 28.106V35.386C49.394 35.756 48.845 36.0571 48.168 36.0571H41.5V40.3879H60.211C60.5083 40.3896 60.8023 40.4501 61.0762 40.5654C61.3502 40.6808 61.5988 40.8489 61.8077 41.0603C62.0167 41.2718 62.1819 41.5223 62.294 41.7976C62.4061 42.0729 62.4628 42.3678 62.461 42.665V44.229H69.63C70.308 44.229 70.857 44.5289 70.857 44.8999V52.179C70.857 52.551 70.308 52.8501 69.63 52.8501H56.294Z" fill="white"/>
</svg>
