<svg width="83" height="85" viewBox="0 0 83 85" fill="none" xmlns="http://www.w3.org/2000/svg">
<path d="M0 42.01C0 18.852 18.617 0.0100098 41.5 0.0100098C64.383 0.0100098 83 18.852 83 42.01C83 65.168 64.383 84.01 41.5 84.01C18.617 84.01 0 65.169 0 42.01ZM0.923004 42.01C0.923004 64.655 19.123 83.0769 41.5 83.0769C63.877 83.0769 82.078 64.655 82.078 42.01C82.078 19.365 63.878 0.943115 41.5 0.943115C19.122 0.943115 0.921997 19.366 0.921997 42.01H0.923004ZM32.415 58.698L24.15 50.333C23.7104 49.8861 23.4143 49.3182 23.2998 48.7019C23.1852 48.0856 23.2574 47.449 23.507 46.874C23.6602 46.5191 23.8783 46.1958 24.15 45.9209C24.4346 45.6316 24.7739 45.4019 25.1482 45.2451C25.5224 45.0883 25.9242 45.0076 26.33 45.0076C26.7358 45.0076 27.1375 45.0883 27.5118 45.2451C27.8861 45.4019 28.2254 45.6316 28.51 45.9209L36.775 54.2859C37.353 54.8747 37.6768 55.6669 37.6768 56.4919C37.6768 57.317 37.353 58.1092 36.775 58.698C36.4905 58.9874 36.1512 59.2174 35.7769 59.3743C35.4026 59.5312 35.0008 59.6118 34.595 59.6118C34.1892 59.6118 33.7874 59.5312 33.4131 59.3743C33.0388 59.2174 32.6995 58.9874 32.415 58.698ZM38.539 57.866C38.7935 57.1185 38.8353 56.315 38.6598 55.5452C38.4842 54.7753 38.0983 54.0694 37.545 53.5061L29.28 45.1411C28.895 44.7494 28.4359 44.4382 27.9294 44.2258C27.423 44.0134 26.8792 43.9041 26.33 43.9041C25.7808 43.9041 25.2371 44.0134 24.7306 44.2258C24.2241 44.4382 23.765 44.7494 23.38 45.1411C22.995 45.5286 22.6893 45.9874 22.48 46.4919L19.78 45.4919C19.4896 45.3821 19.2396 45.1864 19.0634 44.9307C18.8872 44.675 18.7932 44.3715 18.794 44.061V29.7329C18.7917 29.4854 18.8504 29.2414 18.9649 29.022C19.0794 28.8026 19.2462 28.6148 19.4505 28.4751C19.6548 28.3354 19.8903 28.2482 20.1364 28.2212C20.3824 28.1942 20.6312 28.2281 20.861 28.3201L26.088 30.448L34.619 26.072C35.4299 25.6566 36.3589 25.5318 37.2506 25.7188C38.1424 25.9057 38.9431 26.393 39.519 27.0991L40.174 27.8889L37.037 31.063C36.267 31.8462 35.8355 32.9007 35.8355 33.999C35.8355 35.0974 36.267 36.1518 37.037 36.9351L37.412 37.3169C37.7908 37.7012 38.2423 38.0065 38.7402 38.2148C39.238 38.4232 39.7723 38.5305 40.312 38.5305C40.8517 38.5305 41.386 38.4232 41.8838 38.2148C42.3817 38.0065 42.8332 37.7012 43.212 37.3169L44.317 36.197L52.143 45.6399C52.6181 46.217 53.2151 46.682 53.8911 47.001C54.5672 47.32 55.3055 47.4854 56.053 47.4851H56.068C56.3837 48.413 56.3554 49.4234 55.9883 50.3323C55.6212 51.2411 54.9397 51.9878 54.068 52.436L42.701 58.22C42.0412 58.5553 41.301 58.7001 40.5634 58.6379C39.8259 58.5758 39.1204 58.309 38.526 57.8679L38.539 57.866ZM55.468 46.334C54.496 46.1863 53.6124 45.6857 52.986 44.928L44.396 34.564L42.451 36.532C42.1734 36.8153 41.8421 37.0404 41.4765 37.1941C41.1108 37.3478 40.7181 37.427 40.3215 37.427C39.9249 37.427 39.5322 37.3478 39.1665 37.1941C38.8009 37.0404 38.4695 36.8153 38.192 36.532L37.815 36.1521C37.2501 35.5771 36.9335 34.8032 36.9335 33.9971C36.9335 33.191 37.2501 32.4171 37.815 31.842L40.885 28.7351L43.985 25.5969C44.6556 24.9161 45.5486 24.4991 46.5011 24.4216C47.4536 24.3442 48.4022 24.6115 49.174 25.175L56.032 30.187H62.7C62.899 30.1881 63.0958 30.2283 63.2792 30.3054C63.4626 30.3825 63.629 30.4951 63.7689 30.6365C63.9089 30.7779 64.0196 30.9454 64.0948 31.1296C64.1699 31.3139 64.2081 31.511 64.207 31.71V43.437C64.2086 43.7828 64.0922 44.1188 63.8769 44.3894C63.6616 44.66 63.3603 44.849 63.023 44.925L56.923 46.2859C56.6393 46.3486 56.3496 46.3804 56.059 46.3801C55.8607 46.3806 55.6628 46.3651 55.467 46.334H55.468Z" fill="white"/>
</svg>
