<svg width="85" height="86" viewBox="0 0 85 86" fill="none" xmlns="http://www.w3.org/2000/svg">
<path d="M-3.72642e-05 43.35C0.00070744 34.6332 2.69876 26.1301 7.7239 19.0075C12.749 11.8849 19.8551 6.49175 28.067 3.56804C28.1297 3.8751 28.2187 4.17611 28.333 4.46794C19.2383 7.67526 11.5623 13.9805 6.6495 22.279C1.73673 30.5774 -0.0994529 40.3396 1.46267 49.8559C3.02479 59.3721 7.88561 68.0354 15.1935 74.3278C22.5014 80.6202 31.7904 84.1404 41.4331 84.2719C51.0758 84.4034 60.4573 81.1377 67.9341 75.047C75.4109 68.9563 80.5061 60.429 82.3272 50.9589C84.1483 41.4888 82.5791 31.68 77.8946 23.2507C73.21 14.8213 65.7087 8.30909 56.705 4.8549C56.829 4.5679 56.9293 4.27129 57.005 3.96794C64.2002 6.68128 70.5157 11.312 75.2672 17.3581C80.0188 23.4042 83.0253 30.6351 83.9609 38.2677C84.8965 45.9004 83.7256 53.6436 80.575 60.6584C77.4245 67.6731 72.4144 73.692 66.0876 78.0629C59.7608 82.4338 52.3585 84.9902 44.6828 85.4548C37.007 85.9194 29.3505 84.2745 22.5427 80.6987C15.7349 77.1228 10.0354 71.7522 6.06173 65.1686C2.08808 58.5851 -0.00820397 51.0398 -3.72642e-05 43.35ZM32.4669 79.0209C32.5219 75.1719 32.567 72.1589 32.567 72.0949C32.5506 69.7684 32.7178 67.4442 33.067 65.144C29.267 64.302 25.938 63.1378 23.677 60.3788C22.6052 58.9613 22.0804 57.2052 22.1989 55.432C22.8609 51.732 27.956 47.6748 32.344 44.8058C31.9166 47.2377 32.4427 49.7408 33.813 51.7948C32.0374 53.0068 30.4161 54.4306 28.9849 56.0348C30.9989 57.7128 33.2149 58.991 37.0319 57.217C37.5049 56.94 37.9759 56.686 38.4459 56.465C38.4689 56.452 38.491 56.441 38.515 56.425V56.4299C38.925 56.2377 39.3445 56.0665 39.7719 55.9169C39.7783 55.9175 39.7847 55.9175 39.791 55.9169L41.312 57.517L41.966 58.1779L42.624 57.517L44.145 55.9169H44.167C45.7758 56.5195 47.2963 57.3355 48.688 58.3429C49.8915 59.164 51.0184 60.092 52.055 61.1159H52.062C52.076 61.1279 52.1259 61.184 52.1619 61.216C53.8126 62.8309 55.186 64.7067 56.227 66.768C56.8634 68.0476 57.4094 69.3701 57.861 70.726C58.5083 72.3402 59.0537 73.9934 59.494 75.6759C57.5807 76.7346 55.5759 77.619 53.504 78.318C52.9833 76.0589 52.2386 73.8573 51.281 71.746C51.239 71.654 51.1969 71.553 51.1519 71.464L51.325 78.976C45.1497 80.627 38.6512 80.6428 32.468 79.0219L32.4669 79.0209ZM32.927 46.4208C32.9341 44.6508 33.4654 42.9227 34.4539 41.4545C35.4425 39.9863 36.8439 38.844 38.4812 38.1716C40.1185 37.4991 41.9182 37.3268 43.6533 37.6764C45.3885 38.0261 46.9811 38.8821 48.2301 40.1362C49.4792 41.3902 50.3287 42.9863 50.6714 44.7228C51.0141 46.4593 50.8346 48.2584 50.1557 49.893C49.4767 51.5276 48.3286 52.9243 46.8565 53.9069C45.3843 54.8895 43.6539 55.414 41.8839 55.414C39.5042 55.4089 37.2239 54.4592 35.5443 52.7734C33.8647 51.0875 32.9232 48.8037 32.927 46.424V46.4208ZM54.036 35.914C53.794 35.7784 53.5817 35.5953 53.4119 35.3759C53.2464 35.166 53.1183 34.9293 53.033 34.6759C52.9508 34.4236 52.9205 34.1573 52.9439 33.893C52.9658 33.6189 53.0478 33.3528 53.184 33.1139C53.3153 32.875 53.4948 32.6659 53.7112 32.5002C53.9276 32.3344 54.1761 32.2156 54.4409 32.151C54.7078 32.0757 54.9873 32.0552 55.2623 32.091C55.5373 32.1267 55.8022 32.218 56.041 32.3591C56.5218 32.6274 56.8802 33.0712 57.041 33.5978C57.1298 33.8539 57.1623 34.1262 57.1362 34.3959C57.1101 34.6657 57.0261 34.9265 56.89 35.1608C56.7586 35.3996 56.579 35.6086 56.3626 35.7743C56.1462 35.9401 55.8977 36.0592 55.633 36.1239C55.4485 36.1743 55.2582 36.2 55.067 36.2008C54.7043 36.1983 54.3488 36.1004 54.036 35.9169V35.914ZM29.703 35.1608C29.4414 35.121 29.1907 35.0285 28.966 34.8888C28.732 34.7455 28.5326 34.5523 28.382 34.3229C28.2279 34.0973 28.1224 33.8422 28.0721 33.5737C28.0218 33.3051 28.0279 33.0289 28.09 32.7629C28.1421 32.49 28.2487 32.2307 28.4033 31.9999C28.5579 31.7692 28.7574 31.5718 28.99 31.4198C29.4437 31.1089 30.0007 30.9868 30.543 31.079C30.8108 31.1146 31.0676 31.2078 31.2957 31.3525C31.5238 31.4972 31.7177 31.6898 31.864 31.9169C32.0176 32.1427 32.1229 32.398 32.1734 32.6664C32.2238 32.9349 32.2182 33.2108 32.1569 33.477C32.1044 33.7495 31.9976 34.0087 31.843 34.2392C31.6884 34.4697 31.4892 34.6669 31.257 34.819C31.0273 34.9741 30.7694 35.0823 30.4979 35.1379C30.3435 35.1689 30.1865 35.1847 30.029 35.185C29.9189 35.1857 29.809 35.1787 29.7 35.164L29.703 35.1608ZM40.679 33.5358C40.2477 33.36 39.8507 33.1101 39.5059 32.797C39.1657 32.4853 38.8919 32.108 38.701 31.6879C38.5004 31.2539 38.398 30.781 38.401 30.3029C38.3957 29.8278 38.489 29.3568 38.6751 28.9196C38.8611 28.4824 39.1359 28.0884 39.482 27.7629C39.8211 27.4193 40.2263 27.148 40.6732 26.9655C41.1201 26.783 41.5993 26.6929 42.0819 26.7008C43.0395 26.692 43.9629 27.0562 44.6569 27.716C45.0095 28.0278 45.2905 28.4122 45.4804 28.8429C45.6703 29.2736 45.7646 29.7402 45.757 30.2109C45.7621 30.6858 45.6686 31.1567 45.4826 31.5937C45.2965 32.0307 45.0219 32.4244 44.676 32.7499C44.3369 33.0935 43.9317 33.3647 43.4848 33.5473C43.0379 33.7298 42.5586 33.8199 42.076 33.8119C41.5964 33.8143 41.1211 33.7212 40.6779 33.538L40.679 33.5358ZM55.456 30.163L55.95 29.2848C56.1349 28.9501 56.3498 28.6328 56.5919 28.3368C57.0208 27.8117 57.5748 27.4029 58.203 27.1479C58.5821 26.9943 58.9722 26.8693 59.37 26.7738L60.965 26.3688C61.3982 26.2745 61.8166 26.1223 62.2089 25.9159C62.6237 25.6841 62.9621 25.3366 63.1829 24.9159C63.5133 24.3655 63.6173 23.7084 63.473 23.0829C63.3842 22.7545 63.2263 22.4489 63.0099 22.1864C62.7935 21.924 62.5235 21.7107 62.218 21.561C61.8925 21.3693 61.529 21.2513 61.153 21.215C60.8036 21.1837 60.4514 21.2222 60.117 21.328C59.7834 21.4336 59.4746 21.6052 59.2089 21.8329C58.939 22.0629 58.7057 22.3327 58.517 22.633L55.83 20.7699C56.294 20.1257 56.8698 19.5698 57.53 19.1288C58.1323 18.7294 58.8086 18.4551 59.5189 18.3219C60.2291 18.191 60.9578 18.1963 61.666 18.3378C62.4242 18.4881 63.1524 18.7631 63.8209 19.151C64.4599 19.509 65.0381 19.966 65.534 20.505C66.0028 21.0119 66.3701 21.6038 66.616 22.2489C66.8565 22.8887 66.9531 23.5737 66.8989 24.255C66.8301 25.0105 66.5948 25.7412 66.21 26.3949C65.9704 26.8345 65.6704 27.2384 65.3189 27.5949C65.0142 27.8967 64.666 28.1513 64.286 28.35C63.8952 28.5522 63.4843 28.7127 63.06 28.829C62.6153 28.9517 62.13 29.067 61.604 29.175C61.1493 29.263 60.77 29.3524 60.466 29.443C60.1867 29.5236 59.9181 29.6373 59.666 29.7819C59.4376 29.9178 59.2328 30.0901 59.06 30.2919C58.8502 30.5452 58.6653 30.8181 58.508 31.1069L58.1699 31.707L55.456 30.163ZM26.2199 30.122C26.0048 29.8063 25.819 29.4716 25.6649 29.122C25.5319 28.815 25.4353 28.4935 25.377 28.164C25.3196 27.8262 25.3041 27.4826 25.331 27.141C25.366 26.7319 25.4305 26.3258 25.5239 25.9259L25.88 24.3129C25.9918 23.8824 26.0446 23.4386 26.0369 22.9938C26.0001 22.4397 25.7925 21.9106 25.4426 21.4794C25.0927 21.0482 24.6176 20.736 24.083 20.5859C23.7505 20.518 23.4073 20.5222 23.0766 20.5983C22.7459 20.6744 22.4354 20.8207 22.166 21.027C21.8485 21.2332 21.58 21.506 21.379 21.8268C21.1939 22.1259 21.0698 22.4586 21.0139 22.8058C20.9577 23.1528 20.972 23.5077 21.056 23.849C21.1388 24.1938 21.2737 24.5239 21.456 24.828L18.593 26.3988C18.2262 25.6928 17.9891 24.9267 17.893 24.1369C17.8089 23.417 17.8687 22.6875 18.0689 21.9909C18.272 21.2955 18.6041 20.6445 19.0479 20.0719C19.5216 19.4599 20.0929 18.93 20.739 18.5038C21.3444 18.092 22.0114 17.7788 22.715 17.5758C23.3758 17.3842 24.0673 17.321 24.752 17.3898C25.4296 17.4615 26.0827 17.6833 26.664 18.039C27.3062 18.4405 27.8508 18.9801 28.258 19.6188C28.5432 20.0313 28.7684 20.4822 28.927 20.9579C29.0573 21.3672 29.1271 21.7933 29.1339 22.2228C29.1383 22.6644 29.0961 23.1053 29.008 23.538C28.918 23.9927 28.8026 24.4799 28.6619 24.9999C28.5353 25.4473 28.444 25.828 28.388 26.142C28.3339 26.428 28.3147 26.7194 28.331 27.0099C28.3483 27.2755 28.4095 27.5363 28.512 27.7819C28.6428 28.0842 28.8028 28.3729 28.99 28.644L29.372 29.217L26.779 30.9579L26.2199 30.122ZM39.32 23.883V22.1269C39.3136 21.462 39.3675 20.7981 39.481 20.143C39.5827 19.5712 39.7505 19.013 39.981 18.4799C40.2247 17.9363 40.534 17.4246 40.9019 16.956C41.3455 16.3979 41.8295 15.8731 42.3499 15.3859L44.4199 13.3998C44.9949 12.8847 45.4978 12.2945 45.9149 11.6449C46.3956 10.8054 46.605 9.83779 46.5144 8.87468C46.4238 7.91156 46.0377 6.99996 45.409 6.26481C44.9943 5.84364 44.494 5.5165 43.9419 5.30534C43.3899 5.09418 42.7989 5.00403 42.2089 5.04094C41.5517 5.03111 40.9002 5.16498 40.2999 5.43303C39.7444 5.68667 39.2445 6.04759 38.8289 6.49504C38.4143 6.94302 38.0934 7.46917 37.885 8.04289C37.6723 8.62086 37.5485 9.22782 37.518 9.84294L31.861 9.33488C32.014 7.95912 32.4115 6.6218 33.0349 5.38591C33.6062 4.26386 34.3956 3.26718 35.357 2.45402C36.3206 1.64565 37.4284 1.0268 38.622 0.630047C39.8971 0.20655 41.2334 -0.00398298 42.577 0.00700036C43.849 -0.000532382 45.1141 0.194137 46.325 0.583905C47.4676 0.947742 48.5295 1.52793 49.453 2.29289C50.3635 3.05466 51.0937 4.00886 51.591 5.08683C52.1326 6.29076 52.4 7.59996 52.374 8.91984C52.3881 9.79299 52.2797 10.664 52.052 11.507C51.8461 12.2253 51.5362 12.9095 51.132 13.538C50.7127 14.1796 50.2274 14.7753 49.684 15.3158C49.1153 15.8852 48.479 16.4779 47.775 17.0939C47.161 17.6179 46.663 18.0796 46.281 18.4789C45.9268 18.8404 45.6175 19.2432 45.3599 19.6789C45.1303 20.0809 44.9675 20.5176 44.878 20.9718C44.7766 21.5357 44.73 22.108 44.739 22.6808V23.881L39.32 23.883Z" fill="white"/>
</svg>
