<svg width="83" height="85" viewBox="0 0 83 85" fill="none" xmlns="http://www.w3.org/2000/svg">
<path d="M0 42.01C0 18.851 18.616 0.0100098 41.5 0.0100098C64.384 0.0100098 83 18.852 83 42.01C83 65.168 64.383 84.01 41.5 84.01C18.617 84.01 0 65.168 0 42.01ZM0.921997 42.01C0.921997 64.654 19.122 83.0759 41.498 83.0759C63.874 83.0759 82.077 64.654 82.077 42.01C82.077 19.366 63.877 0.942993 41.498 0.942993C19.119 0.942993 0.921997 19.366 0.921997 42.01ZM27.922 61.9531C27.2703 61.9484 26.6472 61.6853 26.1892 61.2217C25.7312 60.7581 25.4758 60.1316 25.479 59.48V24.541C25.4753 23.8891 25.7305 23.2625 26.1885 22.7986C26.6466 22.3347 27.2701 22.0714 27.922 22.0669H54.575C55.2271 22.0714 55.8508 22.3345 56.3092 22.7983C56.7676 23.2622 57.0232 23.8889 57.02 24.541V27.1489C57.92 25.9299 60.238 25.8809 62.233 27.0669C63.1521 27.5903 63.92 28.3428 64.462 29.251C64.7193 29.6384 64.8687 30.0876 64.8947 30.552C64.9207 31.0164 64.8224 31.4793 64.61 31.8931L56.916 45.7561C56.9825 45.868 57.0171 45.9958 57.016 46.126V59.48C57.0187 60.1318 56.7628 60.7581 56.3045 61.2217C55.8462 61.6852 55.2229 61.9484 54.571 61.9531H27.922ZM26.862 24.541V59.48C26.8607 59.7627 26.9715 60.0345 27.1702 60.2356C27.3689 60.4367 27.6393 60.5509 27.922 60.553H54.575C54.858 60.5511 55.1287 60.4372 55.3278 60.2361C55.5269 60.0349 55.6381 59.763 55.637 59.48V48.0601L53.328 52.2219C53.2511 52.3577 53.1306 52.4634 52.986 52.522L47.227 54.8979C47.1444 54.9326 47.0556 54.95 46.966 54.949C46.8431 54.9493 46.7222 54.9169 46.616 54.855C46.5237 54.8 46.4453 54.7245 46.3868 54.6343C46.3284 54.5441 46.2915 54.4417 46.279 54.335L45.533 48.0869C45.5146 47.9394 45.5437 47.7898 45.616 47.6599L48.459 42.5381H33.639C33.4534 42.5381 33.2753 42.4643 33.144 42.333C33.0127 42.2017 32.939 42.0235 32.939 41.8379C32.939 41.6522 33.0127 41.4743 33.144 41.343C33.2753 41.2117 33.4534 41.1379 33.639 41.1379H49.239L55.699 29.498C55.6601 29.4095 55.6401 29.3138 55.64 29.217V24.5359C55.6408 24.3956 55.6139 24.2568 55.561 24.127C55.5081 23.9971 55.4301 23.8788 55.3315 23.7791C55.2328 23.6793 55.1155 23.6001 54.9862 23.5457C54.857 23.4913 54.7183 23.4627 54.578 23.4619H27.923C27.7825 23.4628 27.6435 23.4916 27.514 23.5464C27.3846 23.6012 27.2673 23.681 27.1688 23.7812C27.0703 23.8815 26.9926 24.0002 26.9401 24.1306C26.8876 24.261 26.8614 24.4005 26.863 24.541H26.862ZM31.905 56.3049C31.8714 56.172 31.8776 56.0322 31.9227 55.9028C31.9679 55.7734 32.05 55.6601 32.159 55.5769C32.283 55.4389 32.65 54.961 33.006 54.498C34.929 51.998 36.746 49.7079 37.821 49.2419C37.9499 49.1858 38.0928 49.1708 38.2306 49.1987C38.3683 49.2266 38.4942 49.2961 38.591 49.3979C38.6888 49.5009 38.7534 49.631 38.7762 49.7712C38.799 49.9114 38.7791 50.0554 38.719 50.1841C38.531 50.5841 38.3643 50.953 38.219 51.291L38.619 50.8811C38.7293 50.7658 38.8764 50.6926 39.0349 50.6743C39.1935 50.6561 39.3534 50.6938 39.487 50.781C39.6218 50.8688 39.7222 51.0004 39.7714 51.1536C39.8206 51.3067 39.8155 51.4722 39.757 51.6221L39.391 52.585L39.657 52.417C39.7813 52.3388 39.9274 52.3024 40.0739 52.3132C40.2203 52.324 40.3595 52.3815 40.471 52.4771C40.5834 52.5731 40.6624 52.7022 40.6969 52.8459C40.7314 52.9897 40.7195 53.1406 40.663 53.2771L40.648 53.3169C41.848 53.1389 43.812 52.98 44.813 53.656C44.9654 53.7605 45.0709 53.9205 45.1068 54.1018C45.1427 54.2831 45.1061 54.4713 45.005 54.626C44.9553 54.7023 44.8909 54.7679 44.8156 54.8191C44.7403 54.8703 44.6555 54.9059 44.5663 54.9241C44.4771 54.9422 44.3851 54.9425 44.2958 54.9248C44.2065 54.9071 44.1216 54.8719 44.046 54.821C43.464 54.43 41.611 54.53 40.161 54.821C39.9722 54.8623 39.7749 54.8387 39.601 54.7544C39.4271 54.6701 39.2866 54.5298 39.202 54.356L38.368 54.884C38.2452 54.962 38.1008 54.9987 37.9557 54.989C37.8105 54.9793 37.6723 54.9237 37.561 54.8301C37.4743 54.7575 37.4064 54.665 37.3632 54.5605C37.32 54.4561 37.3028 54.3426 37.313 54.23L36.876 54.6799C36.7713 54.7895 36.633 54.8613 36.4831 54.8835C36.3331 54.9058 36.1801 54.8774 36.048 54.803C35.9147 54.7281 35.8095 54.6115 35.7487 54.4712C35.6878 54.3309 35.6746 54.1747 35.711 54.0261C35.8183 53.6246 35.9469 53.229 36.096 52.8411C35.334 53.7651 34.576 54.7489 34.108 55.3579C33.085 56.6889 33.045 56.7409 32.755 56.8149C32.6664 56.837 32.5743 56.8413 32.4841 56.8276C32.3938 56.814 32.3071 56.7827 32.229 56.7354C32.151 56.688 32.083 56.6257 32.0291 56.552C31.9752 56.4783 31.9364 56.3947 31.915 56.3059L31.905 56.3049ZM33.638 38.5979C33.4524 38.5979 33.2743 38.5243 33.143 38.3931C33.0118 38.2618 32.938 38.0836 32.938 37.8979C32.938 37.7123 33.0118 37.5344 33.143 37.4031C33.2743 37.2718 33.4524 37.198 33.638 37.198H49.431C49.6166 37.198 49.7947 37.2718 49.926 37.4031C50.0572 37.5344 50.131 37.7123 50.131 37.8979C50.131 38.0836 50.0572 38.2618 49.926 38.3931C49.7947 38.5243 49.6166 38.5979 49.431 38.5979H33.638ZM33.638 34.6541C33.4524 34.6541 33.2743 34.5802 33.143 34.449C33.0118 34.3177 32.938 34.1398 32.938 33.9541C32.938 33.7685 33.0118 33.5903 33.143 33.459C33.2743 33.3277 33.4524 33.2539 33.638 33.2539H49.431C49.6166 33.2539 49.7947 33.3277 49.926 33.459C50.0572 33.5903 50.131 33.7685 50.131 33.9541C50.131 34.1398 50.0572 34.3177 49.926 34.449C49.7947 34.5802 49.6166 34.6541 49.431 34.6541H33.638ZM33.638 30.708C33.4524 30.708 33.2743 30.6342 33.143 30.5029C33.0118 30.3717 32.938 30.1937 32.938 30.0081C32.938 29.8224 33.0118 29.6442 33.143 29.5129C33.2743 29.3817 33.4524 29.3081 33.638 29.3081H49.431C49.6166 29.3081 49.7947 29.3817 49.926 29.5129C50.0572 29.6442 50.131 29.8224 50.131 30.0081C50.131 30.1937 50.0572 30.3717 49.926 30.5029C49.7947 30.6342 49.6166 30.708 49.431 30.708H33.638Z" fill="white"/>
</svg>
