<svg width="36" height="41" viewBox="0 0 36 41" fill="none" xmlns="http://www.w3.org/2000/svg">
<path d="M4.48769 39.4926C1.60169 37.1426 -2.56327 35.3226 2.08773 29.4926C4.05873 27.0216 5.69772 26.0606 6.93172 25.7736C8.40172 25.4316 10.3647 26.7736 11.3857 27.4326C12.0387 27.7586 12.771 27.8921 13.497 27.8174C14.2231 27.7426 14.9129 27.4629 15.4857 27.0107C16.5029 26.1977 17.4637 25.3167 18.3617 24.3737C19.4327 23.2517 20.2027 22.2576 20.1937 22.2636C20.1847 22.2696 21.0637 21.3825 22.0397 20.1635C22.8656 19.1349 23.6223 18.0525 24.3047 16.9236C24.6904 16.2624 24.9018 15.5142 24.9193 14.749C24.9368 13.9838 24.7598 13.2266 24.4047 12.5486C23.7047 11.5156 22.3047 9.5337 22.5227 7.9487C22.7027 6.6207 23.4857 4.81467 25.6627 2.54867C30.7977 -2.79633 32.8127 1.48059 35.2287 4.36459C37.6447 7.24859 34.3587 17.0557 25.6287 26.5327C18.2107 34.5877 10.2147 39.9987 6.2087 39.9987C5.5938 40.034 4.98565 39.8551 4.48769 39.4926Z" fill="white"/>
</svg>
