<svg width="171" height="40" viewBox="0 0 171 40" fill="none" xmlns="http://www.w3.org/2000/svg">
<path d="M47.561 28.6052L48.907 28.5052C50.364 28.3642 50.364 28.1852 50.364 23.8932V11.6312C50.364 7.33118 50.364 7.15818 48.907 7.02018L47.561 6.91318V6.13818H57.321C60.869 6.13818 66.416 6.66618 66.416 12.4752C66.416 17.2642 60.734 19.4842 57.216 19.4842H56.583V18.7132C58.19 18.7132 62.492 18.0132 62.492 12.6902C62.492 8.57118 59.539 7.30018 56.166 7.30018C55.3866 7.32295 54.611 7.41769 53.849 7.58318V23.8892C53.849 28.1812 53.849 28.3612 55.902 28.5012L57.252 28.6012V29.3742H47.566L47.561 28.6052Z" fill="white"/>
<path d="M66.098 20.1782C66.098 14.0592 71.122 10.2632 76.926 10.2632C82.46 10.2632 87.126 13.5802 87.126 19.8632C87.126 26.0912 82.315 29.8022 76.358 29.8022C70.401 29.8022 66.098 26.2922 66.098 20.1782ZM76.926 28.8712C82.036 28.8712 83.969 24.7352 83.969 20.6002C83.969 15.2512 81.141 11.2002 76.412 11.2002C71.897 11.2002 69.253 14.7392 69.253 19.6382C69.254 25.4132 72.39 28.8722 76.926 28.8722V28.8712Z" fill="white"/>
<path d="M96.224 18.6524C98.603 19.9194 101.071 21.1114 101.071 24.5134C101.071 28.3344 97.307 29.8064 94.12 29.8064C92.473 29.8682 90.8407 29.4767 89.401 28.6744C88.751 27.0925 88.4209 25.3975 88.43 23.6874L89.401 23.4624C89.727 25.5004 90.839 28.8724 94.963 28.8724C95.4355 28.9107 95.9108 28.8479 96.357 28.6881C96.8033 28.5282 97.2104 28.275 97.5511 27.9454C97.8918 27.6158 98.1582 27.2173 98.3327 26.7765C98.5072 26.3358 98.5857 25.8629 98.563 25.3894C98.563 23.3234 96.725 21.9074 94.387 20.9134L92.46 19.9204C91.5325 19.4981 90.7358 18.8338 90.1538 17.9972C89.5717 17.1607 89.2256 16.1828 89.152 15.1664C89.152 11.7084 92.22 10.2664 95.412 10.2664C96.8474 10.2248 98.2711 10.5362 99.558 11.1734C99.7703 12.466 99.8707 13.7745 99.858 15.0844H99.101C98.801 13.6704 98.324 11.2024 94.922 11.2024C94.5017 11.18 94.0812 11.2433 93.686 11.3882C93.2909 11.5331 92.9292 11.7568 92.623 12.0456C92.3168 12.3344 92.0724 12.6823 91.9047 13.0684C91.7369 13.4544 91.6493 13.8705 91.647 14.2914C91.647 15.9594 92.947 16.8684 94.561 17.7714L96.224 18.6524Z" fill="white"/>
<path d="M101.17 28.7574L102.253 28.6744C103.423 28.5614 103.423 28.4164 103.423 24.9654V15.1134C103.423 11.6584 103.423 11.5134 102.253 11.4024L101.17 11.3164V10.6914H108.476V11.3134L107.395 11.3994C106.22 11.5134 106.22 11.6554 106.22 15.1104V24.9644C106.22 28.4144 106.22 28.5644 107.395 28.6734L108.476 28.7564V29.3784H101.17V28.7574Z" fill="white"/>
<path d="M114.426 28.757L115.543 28.674C117.196 28.561 117.196 28.416 117.196 24.965V11.487H115.63C111.39 11.487 111.33 11.905 110.664 15.187H109.941C109.941 15.078 109.883 14.313 109.883 13.944C109.896 12.8506 110.006 11.7606 110.214 10.687H126.97C127.175 11.7609 127.284 12.8508 127.297 13.944C127.297 14.313 127.233 15.078 127.233 15.187H126.515C125.851 11.902 125.795 11.487 121.556 11.487H119.993V24.965C119.993 28.415 119.993 28.565 121.67 28.674L122.756 28.757V29.379H114.425L114.426 28.757Z" fill="white"/>
<path d="M128.355 28.7574L129.435 28.6744C130.607 28.5614 130.607 28.4164 130.607 24.9654V15.1134C130.607 11.6584 130.607 11.5134 129.435 11.4024L128.355 11.3164V10.6914H135.663V11.3134L134.583 11.3994C133.411 11.5134 133.411 11.6554 133.411 15.1104V24.9644C133.411 28.4144 133.411 28.5644 134.583 28.6734L135.663 28.7564V29.3784H128.355V28.7574Z" fill="white"/>
<path d="M139.182 13.58C138.732 12.532 138.4 11.487 137.412 11.4L136.534 11.314V10.689H144.022V11.313L143.096 11.399C142.608 11.454 141.735 11.541 141.735 12.106C141.83 12.495 141.964 12.8735 142.135 13.236L147.341 25.866C148.029 24.166 152.757 13.155 152.757 12.275C152.757 11.705 152.15 11.568 151.577 11.486L150.226 11.313V10.688H156.726V11.313L155.936 11.486C155.6 11.5455 155.289 11.7024 155.042 11.937C154.373 12.557 153.415 15.279 152.661 16.637L150.62 21.279C148.898 25.187 147.396 28.645 147.12 29.379C146.799 29.5647 146.455 29.7083 146.097 29.806L139.182 13.58Z" fill="white"/>
<path d="M150.122 28.7572L150.694 28.6742C151.841 28.5012 151.994 28.1942 152.708 26.5522L158.963 12.2212C159.208 11.6572 159.447 11.0852 159.692 10.5482L160.567 10.2642L167.267 26.6642C167.717 27.7972 168.023 28.4502 168.804 28.5912L170.004 28.7612V29.3832H162.548V28.7612L163.905 28.5352C164.45 28.4492 164.834 28.3082 164.834 27.9962C164.802 27.7891 164.743 27.5873 164.657 27.3962L162.548 22.0492C161.446 21.8551 160.329 21.7594 159.21 21.7632C158.152 21.7733 157.097 21.8689 156.054 22.0492L154.518 25.9852C154.246 26.5914 154.045 27.2269 153.918 27.8792C153.918 28.4162 154.308 28.5022 154.642 28.5312L156.442 28.7572V29.3792H150.125L150.122 28.7572ZM156.439 20.9702C157.347 20.9122 158.275 20.8292 159.182 20.8292C160.145 20.8195 161.108 20.8665 162.065 20.9702L159.297 14.1132L156.439 20.9702Z" fill="white"/>
<path d="M65.638 36.7801C65.5794 37.4059 65.4221 38.0185 65.172 38.5951C64.4232 38.8673 63.6317 39.0027 62.835 38.9951C60.674 38.9951 58.624 38.0461 58.624 35.3341C58.624 32.4861 61.066 31.6341 62.858 31.6341C63.6524 31.6063 64.443 31.7563 65.172 32.0731C65.2905 32.5915 65.3512 33.1214 65.353 33.6531L65.041 33.7161C65.0182 33.4553 64.9423 33.2019 64.8179 32.9715C64.6936 32.7411 64.5235 32.5386 64.318 32.3764C64.1125 32.2142 63.876 32.0957 63.623 32.0282C63.3701 31.9608 63.106 31.9458 62.847 31.9841C62.4311 31.955 62.0139 32.0175 61.6249 32.1673C61.2358 32.3172 60.8844 32.5506 60.5955 32.8512C60.3066 33.1517 60.0872 33.5121 59.9528 33.9067C59.8185 34.3014 59.7725 34.7207 59.818 35.1351C59.818 36.9601 60.751 38.6471 62.812 38.6471C64.695 38.6471 64.97 37.5711 65.335 36.7141L65.638 36.7801Z" fill="white"/>
<path d="M66.009 36.0509C66.0161 35.635 66.1079 35.225 66.2788 34.8457C66.4497 34.4665 66.6961 34.1261 67.003 33.8454C67.3099 33.5646 67.6708 33.3493 68.0636 33.2127C68.4565 33.0761 68.8731 33.0211 69.288 33.0509C69.6878 33.0159 70.0904 33.0657 70.4697 33.1969C70.8489 33.3282 71.1962 33.538 71.4888 33.8127C71.7814 34.0873 72.0127 34.4206 72.1676 34.7908C72.3226 35.161 72.3977 35.5597 72.388 35.9609C72.3902 36.3791 72.305 36.7932 72.138 37.1767C71.971 37.5601 71.7259 37.9045 71.4182 38.1878C71.1105 38.4711 70.7471 38.6871 70.3512 38.8219C69.9553 38.9568 69.5356 39.0075 69.119 38.9709C68.7166 39.0124 68.31 38.9668 67.9267 38.8374C67.5434 38.708 67.1924 38.4977 66.8975 38.2208C66.6025 37.9439 66.3706 37.6068 66.2173 37.2325C66.064 36.8581 65.993 36.4551 66.009 36.0509ZM69.288 38.6879C70.841 38.6879 71.426 37.4349 71.426 36.1809C71.426 34.5579 70.563 33.3299 69.136 33.3299C67.761 33.3299 66.962 34.4019 66.962 35.8889C66.963 37.6369 67.918 38.6879 69.288 38.6879Z" fill="white"/>
<path d="M72.887 38.6541L73.116 38.6011C73.2173 38.5895 73.3147 38.5553 73.401 38.5011C73.5537 38.0469 73.6245 37.5691 73.61 37.0901L73.756 34.9231C73.792 34.3391 73.856 33.4131 73.856 33.1781L74.107 33.1011C74.378 33.5491 76.458 37.2471 76.742 37.7211C77.035 37.2851 79.08 33.6211 79.248 33.1771L79.487 33.1001C79.487 33.1711 79.547 34.1311 79.615 35.2661L79.7 36.7491C79.6983 37.3178 79.7557 37.8852 79.871 38.4421C79.9141 38.4917 79.9672 38.5317 80.0268 38.5595C80.0865 38.5872 80.1512 38.6021 80.217 38.6031L80.488 38.6561V38.8471H78.148V38.6561L78.509 38.6031C78.896 38.5611 78.934 38.4251 78.934 38.0271C78.934 37.0751 78.785 35.2711 78.785 34.7271H78.762C78.611 35.1051 77.679 36.7831 76.775 38.4561C76.735 38.5391 76.692 38.6491 76.647 38.7341L76.393 38.8481C76.184 38.4481 75.029 36.3551 74.399 35.2261C74.311 35.0611 74.237 34.8951 74.158 34.7261H74.14C74.11 35.2151 73.984 37.6391 73.984 37.9081C73.984 38.4181 73.984 38.5621 74.415 38.6081L74.771 38.6611V38.8521H72.887V38.6541Z" fill="white"/>
<path d="M80.9 38.6543L81.237 38.6273C81.586 38.5943 81.586 38.5503 81.586 37.5043V34.5133C81.586 33.4713 81.586 33.4253 81.237 33.3893L80.9 33.3663V33.1743H83.291C84.154 33.1743 85.496 33.3023 85.496 34.7233C85.496 35.8893 84.115 36.4293 83.258 36.4293H83.101V36.2423C83.2954 36.2531 83.4899 36.2223 83.6715 36.1519C83.8531 36.0816 84.0176 35.9734 84.154 35.8344C84.2905 35.6955 84.3957 35.5291 84.4628 35.3463C84.5299 35.1635 84.5572 34.9685 84.543 34.7743C84.543 33.7693 83.82 33.4613 83.005 33.4613C82.8142 33.4661 82.6243 33.4895 82.438 33.5313V37.5033C82.438 38.5503 82.438 38.5933 82.938 38.6263L83.266 38.6533V38.8443H80.894L80.9 38.6543Z" fill="white"/>
<path d="M84.974 38.6543L85.151 38.6273C85.497 38.5783 85.542 38.4843 85.765 37.9853L87.665 33.6393C87.741 33.4723 87.81 33.2973 87.886 33.1393L88.152 33.0513L90.179 38.0223C90.319 38.3673 90.408 38.5643 90.65 38.6063L91.017 38.6593V38.8503H88.748V38.6593L89.156 38.5893C89.321 38.5643 89.444 38.5203 89.444 38.4283C89.4335 38.3658 89.415 38.305 89.389 38.2473L88.748 36.6133C88.4135 36.5554 88.0745 36.5276 87.735 36.5303C87.4146 36.5322 87.0949 36.5599 86.779 36.6133L86.31 37.8053C86.2286 37.9907 86.1666 38.1841 86.125 38.3823C86.125 38.5453 86.249 38.5733 86.35 38.5823L86.892 38.6523V38.8433H84.972L84.974 38.6543ZM86.894 36.2943C87.166 36.2793 87.452 36.2513 87.726 36.2513C88.0193 36.2486 88.3124 36.263 88.604 36.2943L87.763 34.2143L86.894 36.2943Z" fill="white"/>
<path d="M90.848 38.6542L91.172 38.6272C91.529 38.6022 91.599 38.3382 91.599 37.4132V33.1742L91.799 33.0972C92.553 34.0112 95.255 36.6342 96.239 37.5542V34.6132C96.239 33.6722 96.239 33.4352 95.739 33.3932L95.415 33.3702V33.1782H97.38V33.3702L97.059 33.3932C96.726 33.4222 96.665 33.6882 96.665 34.6132V38.8482L96.456 38.9252C96.256 38.7252 95.694 38.1572 94.749 37.2412L92.009 34.5172V37.4172C92.009 38.3572 92.009 38.5892 92.48 38.6312L92.817 38.6582V38.8492H90.848V38.6542ZM92.848 32.4032C92.958 32.2332 93.287 31.6832 93.771 31.6832C93.9958 31.6997 94.216 31.7549 94.422 31.8462C94.6462 31.9419 94.8848 31.9994 95.128 32.0162C95.384 32.0162 95.556 31.7522 95.628 31.6602L95.743 31.7602C95.643 31.9672 95.384 32.4742 94.878 32.4742C94.442 32.4742 93.83 32.1402 93.524 32.1402C93.265 32.1402 93.068 32.4042 92.978 32.5152L92.848 32.4032Z" fill="white"/>
<path d="M97.805 38.6543L98.132 38.6273C98.489 38.5943 98.489 38.5503 98.489 37.5043V34.5133C98.489 33.4713 98.489 33.4253 98.132 33.3893L97.805 33.3663V33.1743H100.022V33.3663L99.692 33.3893C99.332 33.4263 99.332 33.4713 99.332 34.5133V37.5033C99.332 38.5503 99.332 38.5933 99.692 38.6263L100.022 38.6533V38.8443H97.805V38.6543Z" fill="white"/>
<path d="M100.031 38.6543L100.204 38.6273C100.553 38.5783 100.604 38.4843 100.816 37.9853L102.716 33.6393C102.788 33.4723 102.858 33.2973 102.939 33.1393L103.2 33.0513L105.236 38.0223C105.372 38.3673 105.46 38.5643 105.694 38.6063L106.062 38.6593V38.8503H103.806V38.6593L104.219 38.5893C104.377 38.5643 104.494 38.5203 104.494 38.4283C104.485 38.3655 104.467 38.3045 104.44 38.2473L103.806 36.6223C103.47 36.5649 103.129 36.5372 102.788 36.5393C102.468 36.5414 102.148 36.5691 101.832 36.6223L101.364 37.8143C101.284 37.9995 101.224 38.193 101.186 38.3913C101.186 38.5543 101.303 38.5823 101.401 38.5913L101.953 38.6613V38.8523H100.034L100.031 38.6543ZM101.95 36.2943C102.216 36.2793 102.505 36.2513 102.777 36.2513C103.069 36.2485 103.361 36.2628 103.652 36.2943L102.822 34.2143L101.95 36.2943Z" fill="white"/>
<path d="M108.094 38.6881L108.361 38.6611C108.653 38.6361 108.653 38.6021 108.653 37.7301V35.2561C108.653 34.3881 108.653 34.3491 108.361 34.3211L108.094 34.2991V34.1431H110.565C112.192 34.1431 113.155 34.9431 113.155 36.3211C113.155 38.1731 111.697 38.8451 110.116 38.8451H108.094V38.6881ZM109.358 38.5071C109.641 38.5657 109.929 38.5991 110.218 38.6071C110.505 38.6445 110.797 38.616 111.072 38.5237C111.347 38.4315 111.597 38.2779 111.803 38.0746C112.009 37.8714 112.167 37.6238 112.263 37.3506C112.36 37.0774 112.393 36.7859 112.36 36.4981C112.392 36.2036 112.356 35.9056 112.255 35.6271C112.154 35.3486 111.99 35.0971 111.777 34.8919C111.563 34.6868 111.305 34.5335 111.023 34.4439C110.74 34.3543 110.441 34.3307 110.148 34.3751C109.883 34.3831 109.62 34.4078 109.358 34.4491V38.5071Z" fill="white"/>
<path d="M113.725 38.6881L113.993 38.6611C114.293 38.6361 114.293 38.6021 114.293 37.7301V35.2561C114.293 34.3881 114.293 34.3491 113.993 34.3211L113.725 34.2991V34.1431H116.98C117.03 34.3913 117.057 34.6438 117.06 34.8971C117.06 35.0621 117.045 35.1221 117.045 35.1801L116.868 35.2131C116.701 34.4511 116.682 34.3451 115.615 34.3451H114.989V36.3011H115.666C116.254 36.3011 116.386 36.2941 116.434 36.0011L116.47 35.7581H116.67V37.0391H116.47L116.434 36.7981C116.387 36.5061 116.254 36.4981 115.666 36.4981H114.989V38.5481C115.258 38.6039 115.532 38.635 115.807 38.6411C117.017 38.6411 117.097 38.2131 117.243 37.6311L117.431 37.6571C117.407 38.0625 117.323 38.4621 117.182 38.8431H113.725V38.6881Z" fill="white"/>
<path d="M122.81 34.7979C123.701 35.2769 124.633 35.7269 124.633 37.0059C124.633 38.4479 123.215 38.9999 122.013 38.9999C121.393 39.0215 120.778 38.8728 120.236 38.5699C119.99 37.9762 119.866 37.3394 119.869 36.6969L120.236 36.6059C120.254 37.152 120.482 37.67 120.874 38.051C121.266 38.432 121.79 38.6463 122.336 38.6489C122.515 38.6632 122.694 38.6395 122.863 38.5792C123.031 38.5189 123.185 38.4235 123.314 38.2993C123.443 38.175 123.544 38.0248 123.611 37.8586C123.677 37.6923 123.708 37.5138 123.7 37.3349C123.7 36.5569 123.007 36.0249 122.119 35.6499L121.396 35.2759C121.046 35.1173 120.745 34.8674 120.525 34.5524C120.305 34.2374 120.174 33.869 120.146 33.4859C120.146 32.1789 121.309 31.6359 122.503 31.6359C123.046 31.6188 123.586 31.737 124.072 31.9799C124.151 32.4668 124.188 32.9596 124.183 33.4529H123.899C123.789 32.9169 123.613 31.9859 122.324 31.9859C122.165 31.9778 122.007 32.0019 121.858 32.0566C121.709 32.1114 121.573 32.1957 121.457 32.3045C121.341 32.4134 121.249 32.5445 121.186 32.6899C121.122 32.8354 121.088 32.9922 121.087 33.1509C121.087 33.7829 121.578 34.1229 122.187 34.4659L122.81 34.7979Z" fill="white"/>
<path d="M125.186 38.6543L125.516 38.6273C125.872 38.5943 125.872 38.5503 125.872 37.5043V34.5133C125.872 33.4713 125.872 33.4253 125.516 33.3893L125.186 33.3663V33.1743H129.122C129.184 33.4752 129.217 33.7812 129.222 34.0883C129.222 34.2883 129.2 34.3503 129.2 34.4313L128.982 34.4633C128.782 33.5463 128.766 33.4183 127.482 33.4183H126.722V35.7763H127.531C128.241 35.7763 128.407 35.7683 128.458 35.4173L128.502 35.1253H128.743V36.6693H128.502L128.458 36.3813C128.407 36.0273 128.241 36.0183 127.531 36.0183H126.722V38.4923C127.049 38.5587 127.382 38.5958 127.716 38.6033C129.159 38.6033 129.256 38.0873 129.435 37.3853L129.664 37.4183C129.634 37.9064 129.533 38.3874 129.364 38.8463H125.187L125.186 38.6543Z" fill="white"/>
<path d="M135.861 38.536C135.131 38.8014 134.362 38.947 133.585 38.967C131.748 38.967 130.11 38.214 130.11 36.026C130.11 33.735 132.073 33.046 133.51 33.046C134.148 33.024 134.783 33.1449 135.368 33.4C135.462 33.8169 135.51 34.2427 135.512 34.67L135.264 34.723C135.245 34.5132 135.184 34.3095 135.083 34.1243C134.983 33.9391 134.846 33.7763 134.681 33.6459C134.515 33.5155 134.325 33.4202 134.121 33.3659C133.918 33.3116 133.705 33.2994 133.497 33.33C133.163 33.307 132.828 33.3577 132.516 33.4783C132.204 33.5989 131.922 33.7866 131.691 34.0281C131.459 34.2696 131.283 34.559 131.175 34.8759C131.068 35.1928 131.031 35.5294 131.068 35.862C131.028 36.2214 131.065 36.5853 131.176 36.9294C131.288 37.2734 131.471 37.5897 131.715 37.8571C131.958 38.1245 132.256 38.3369 132.588 38.48C132.92 38.6231 133.279 38.6937 133.641 38.687C134.002 38.6886 134.362 38.6514 134.715 38.576V38.256C134.715 37.209 134.715 37.166 134.074 37.13L133.748 37.113V36.923H136.064V37.113L135.733 37.135C135.561 37.172 135.561 37.215 135.561 38.046C135.561 38.302 135.561 38.357 135.709 38.357H135.804L135.861 38.536Z" fill="white"/>
<path d="M141.474 38.6713C141.344 38.5503 141.274 38.4313 141.132 38.4313C140.479 38.7599 139.763 38.9428 139.032 38.9673C137.148 38.9673 136.995 37.9503 136.995 36.7803V34.5133C136.995 33.4713 136.995 33.4253 136.641 33.3893L136.305 33.3663V33.1743H138.516V33.3663L138.197 33.3893C137.845 33.4263 137.845 33.4713 137.845 34.5133V36.6433C137.845 37.8703 138.062 38.6883 139.467 38.6883C139.775 38.692 140.08 38.6333 140.365 38.5158C140.649 38.3982 140.907 38.2242 141.122 38.0043V34.5133C141.122 33.4713 141.122 33.4253 140.769 33.3893L140.439 33.3663V33.1743H142.652V33.3663L142.328 33.3893C141.971 33.4263 141.971 33.4713 141.971 34.5133V38.8443L141.697 38.9213L141.474 38.6713Z" fill="white"/>
<path d="M143.124 38.6543L143.445 38.6273C143.804 38.5943 143.804 38.5503 143.804 37.5043V34.5133C143.804 33.4713 143.804 33.4253 143.445 33.3893L143.124 33.3663V33.1743H145.499C146.373 33.1743 147.589 33.2963 147.589 34.6033C147.589 35.4033 146.834 35.8713 146.333 36.0953C146.465 36.3333 146.775 36.8843 147.012 37.2953C147.264 37.7799 147.609 38.2106 148.026 38.5633C148.171 38.6268 148.329 38.6563 148.487 38.6493V38.8403H147.787C147.513 38.8283 147.247 38.742 147.018 38.5905C146.789 38.439 146.605 38.2281 146.487 37.9803L146.119 37.3143C145.967 37.0141 145.778 36.7337 145.558 36.4793C145.386 36.3837 145.188 36.3442 144.992 36.3663H144.648V37.5033C144.648 38.5503 144.648 38.5933 144.992 38.6263L145.321 38.6533V38.8443H143.121L143.124 38.6543ZM144.653 36.1303H145.171C145.359 36.1536 145.55 36.1354 145.731 36.077C145.912 36.0186 146.077 35.9213 146.216 35.7921C146.355 35.6629 146.464 35.5048 146.535 35.329C146.607 35.1531 146.639 34.9638 146.629 34.7743C146.642 34.5906 146.613 34.4064 146.545 34.2351C146.478 34.0638 146.373 33.9097 146.239 33.7839C146.104 33.6582 145.943 33.564 145.768 33.5082C145.592 33.4524 145.406 33.4364 145.224 33.4613C145.032 33.4663 144.84 33.4897 144.652 33.5313L144.653 36.1303Z" fill="white"/>
<path d="M148.348 36.0511C148.355 35.6357 148.447 35.226 148.618 34.8472C148.788 34.4683 149.035 34.1282 149.341 33.8475C149.647 33.5668 150.008 33.3514 150.4 33.2145C150.792 33.0776 151.208 33.022 151.623 33.0511C152.023 33.0157 152.425 33.0653 152.804 33.1964C153.183 33.3276 153.53 33.5375 153.823 33.8124C154.115 34.0872 154.346 34.4207 154.5 34.7911C154.654 35.1614 154.728 35.5601 154.717 35.9611C154.72 36.3784 154.636 36.7918 154.47 37.1747C154.304 37.5576 154.06 37.9017 153.754 38.185C153.447 38.4683 153.085 38.6845 152.69 38.8199C152.295 38.9552 151.877 39.0068 151.461 38.9711C151.059 39.012 150.652 38.9661 150.269 38.8366C149.886 38.707 149.535 38.4967 149.24 38.22C148.945 37.9432 148.712 37.6064 148.559 37.2323C148.405 36.8582 148.333 36.4554 148.348 36.0511ZM151.623 38.6881C153.188 38.6881 153.763 37.4351 153.763 36.1811C153.763 34.5581 152.909 33.3301 151.47 33.3301C150.111 33.3301 149.312 34.4021 149.312 35.8891C149.311 37.6371 150.248 38.6881 151.622 38.6881H151.623Z" fill="white"/>
<path d="M157.69 35.5884C158.414 35.9744 159.16 36.3334 159.16 37.3674C159.16 38.5254 158.018 38.9674 157.051 38.9674C156.554 38.9879 156.06 38.8702 155.626 38.6274C155.429 38.1494 155.327 37.6374 155.326 37.1204L155.626 37.0483C155.641 37.487 155.826 37.9028 156.14 38.2087C156.455 38.5145 156.876 38.6868 157.315 38.6894C157.458 38.7008 157.602 38.6815 157.738 38.6328C157.873 38.5841 157.996 38.5071 158.099 38.407C158.203 38.3069 158.283 38.1859 158.336 38.0521C158.389 37.9184 158.412 37.7749 158.405 37.6314C158.405 37.0073 157.844 36.5784 157.135 36.2794L156.55 35.9794C156.269 35.8506 156.029 35.6489 155.853 35.3952C155.677 35.1415 155.572 34.8453 155.55 34.5374C155.55 33.4924 156.483 33.0514 157.45 33.0514C157.885 33.0391 158.316 33.1332 158.706 33.3254C158.766 33.7184 158.794 34.1157 158.789 34.5133H158.569C158.479 34.0823 158.335 33.3354 157.308 33.3354C157.18 33.3272 157.052 33.3452 156.931 33.3883C156.811 33.4315 156.7 33.4988 156.607 33.5861C156.513 33.6735 156.438 33.7791 156.387 33.8964C156.336 34.0137 156.309 34.1403 156.308 34.2684C156.308 34.7784 156.694 35.0514 157.186 35.3284L157.69 35.5884Z" fill="white"/>
<path d="M20.674 0C9.255 0 0 8.712 0 19.46C0 30.208 9.254 38.921 20.674 38.921C32.094 38.921 41.348 30.205 41.348 19.46C41.348 8.715 32.089 0 20.674 0ZM20.384 8.087C21.0655 8.57231 21.7136 9.10283 22.324 9.675C22.457 9.788 22.583 9.924 23.056 9.775C24.6013 9.14741 26.2024 8.66727 27.838 8.341C28.0728 8.2733 28.3217 8.27125 28.5576 8.33507C28.7935 8.39889 29.0074 8.52614 29.176 8.703C29.8663 9.22398 30.5226 9.78845 31.141 10.393C30.2939 10.4621 29.4525 10.5898 28.623 10.775L28.457 10.816L28.42 10.823C28.1857 10.8597 27.9657 10.959 27.7832 11.1104C27.6007 11.2617 27.4624 11.4596 27.383 11.683C27.3494 11.7929 27.3326 11.9071 27.333 12.022C27.3428 12.3116 27.4483 12.5898 27.633 12.813C27.9361 13.2545 28.2013 13.7209 28.426 14.207C27.0891 14.5942 25.7727 15.0492 24.482 15.57C24.2639 15.6567 24.07 15.7948 23.9167 15.9725C23.7635 16.1503 23.6555 16.3625 23.602 16.591C23.5801 16.6772 23.5704 16.7661 23.573 16.855C23.5768 17.0471 23.6192 17.2366 23.6977 17.412C23.7762 17.5874 23.8892 17.7452 24.03 17.876C25.5984 19.7162 26.4546 22.0581 26.443 24.476C26.4426 25.1086 26.3756 25.7394 26.243 26.358C25.61 29.325 23.488 31.584 19.943 33.079C18.1603 33.7791 16.2454 34.0786 14.334 33.956C14.434 33.946 14.534 33.934 14.649 33.927C18.205 33.518 20.711 32.355 22.44 29.454C24.831 25.454 23.022 20.548 19.429 17.761C18.3712 17.0023 17.2589 16.3228 16.101 15.728C15.819 15.566 15.654 15.328 16.016 14.923C16.9191 13.6951 17.9972 12.6062 19.216 11.691C19.555 11.471 19.416 11.291 19.263 11.104C18.7374 10.678 18.1752 10.2992 17.583 9.972C17.192 9.793 17.039 9.597 17.341 9.337C18.0166 8.76441 18.7914 8.32042 19.627 8.027C19.744 7.95813 19.8794 7.92685 20.0148 7.9374C20.1502 7.94795 20.2791 7.99982 20.384 8.086V8.087ZM6.92801 11.55C7.37122 10.6965 7.89421 9.88691 8.49001 9.132C8.55297 9.03955 8.64513 8.97089 8.75172 8.93699C8.85832 8.90308 8.97322 8.90591 9.07802 8.945C9.65902 9.033 10.691 9.445 12.029 9.795C12.1324 9.84115 12.2485 9.85024 12.3578 9.82073C12.4671 9.79122 12.5629 9.72491 12.629 9.633C13.9429 8.36073 15.5075 7.37614 17.223 6.742C17.5491 6.62482 17.9082 6.64026 18.223 6.785C18.523 6.924 18.86 7.06 19.254 7.245C18.4201 7.57357 17.6468 8.03896 16.966 8.622C16.8137 8.73911 16.6897 8.88899 16.6031 9.06053C16.5166 9.23208 16.4697 9.42089 16.466 9.613C16.466 9.675 16.466 9.732 16.472 9.782C16.5225 10.0193 16.6313 10.2403 16.7883 10.4251C16.9454 10.61 17.146 10.7529 17.372 10.841L17.446 10.88C17.4202 10.8692 17.3955 10.8562 17.372 10.841C17.6857 11.0151 17.9905 11.205 18.285 11.41C17.2372 12.2702 16.3013 13.2582 15.499 14.351C15.345 14.5139 15.2291 14.7091 15.16 14.9224C15.0908 15.1357 15.07 15.3617 15.099 15.584C15.1463 15.8024 15.243 16.0071 15.3816 16.1824C15.5203 16.3576 15.6973 16.4988 15.899 16.595L16.467 16.916C17.3822 17.3918 18.2592 17.9378 19.09 18.549C22.145 20.921 24.079 25.263 21.852 28.989C20.352 31.489 18.2 32.768 14.852 33.151C13.692 33.2841 12.5176 33.211 11.383 32.935C11.8396 32.9894 12.2992 33.0141 12.759 33.009C15.289 32.966 17.932 32.145 19.308 30.109C22.758 25.009 18.8 19.728 13.439 18.06C11.874 17.6057 10.2747 17.2787 8.657 17.082C8.076 17.015 7.93902 16.846 8.11702 16.474C8.70805 15.2332 9.40462 14.0455 10.199 12.924C10.249 12.854 10.224 12.674 9.99901 12.616C9.09251 12.3665 8.17316 12.1662 7.24501 12.016C6.91401 11.966 6.79201 11.813 6.92801 11.55ZM23.513 36.974C20.1873 37.5408 16.7708 37.2184 13.6097 36.0395C10.4487 34.8606 7.65543 32.8671 5.513 30.261C8.253 32.761 12.913 36.809 19.969 33.74C30.227 29.423 27.197 19.778 24.399 16.952C24.3345 16.9094 24.2836 16.849 24.2527 16.7781C24.2218 16.7072 24.2121 16.6288 24.2248 16.5525C24.2375 16.4762 24.2721 16.4053 24.3243 16.3482C24.3765 16.2911 24.4441 16.2504 24.519 16.231C26.0281 15.6184 27.5749 15.1033 29.15 14.689C29.35 14.633 29.377 14.543 29.28 14.314C29.0095 13.5031 28.621 12.7366 28.127 12.039C27.861 11.767 27.98 11.609 28.268 11.539C29.1944 11.3168 30.1376 11.172 31.088 11.106C31.1962 11.0833 31.3087 11.0925 31.4118 11.1325C31.5149 11.1724 31.6043 11.2414 31.669 11.331C32.1312 12.1321 32.5041 12.9815 32.781 13.864C32.8125 13.9433 32.8638 14.0133 32.9299 14.0672C32.9961 14.1211 33.075 14.1572 33.159 14.172C34.864 14.1799 36.567 14.2891 38.259 14.499C38.3496 14.5196 38.4349 14.5587 38.5098 14.6137C38.5846 14.6688 38.6473 14.7387 38.694 14.819C39.617 18.9173 39.1782 23.2047 37.444 27.031C34.555 33.558 28.955 36.194 23.513 36.974Z" fill="white"/>
</svg>
